<svg width="150" height="66" viewBox="0 0 150 66" fill="none" xmlns="http://www.w3.org/2000/svg">
<g id="Frame 13">
<g id="Group 3">
<path id="path650" d="M24.885 10.3681C23.0655 10.3681 21.3086 10.6469 19.6523 11.1587C21.3329 10.6507 23.1142 10.3757 24.9648 10.3695C24.9371 10.3695 24.9127 10.3681 24.885 10.3681Z" fill="#1D4441"/>
<path id="path652" d="M47.941 27.5294H46.257V23.9631H46.7431V22.227H42.7362C40.2535 14.7423 33.1944 9.32631 24.8854 9.32631C16.5798 9.32631 9.51742 14.7423 7.03478 22.227H3.04864V23.9631H3.53129V25.9315V27.5294H1.8299V11.8256C3.97227 9.37875 7.46534 6.87354 11.2188 5.0975C15.6285 3.01208 20.3542 1.90999 24.8854 1.90999C29.4167 1.90999 34.1424 3.01208 38.5521 5.0975C42.3091 6.87388 45.8021 9.37909 47.941 11.8256V27.5294ZM39.6806 52.2065C37.6806 42.7777 42.8889 39.8826 42.8889 39.8826L42.2743 39.2638C41.2709 39.7593 39.7605 41.7454 39.7605 41.7454C39.9515 38.1617 41.3195 36.7624 41.3195 36.7624L40.5903 36.4298C38.6841 38.4395 38.566 42.8781 38.566 42.8781C36.8611 41.185 35.0417 40.3867 34.2813 40.1051C34.3403 39.3829 34.4375 38.7965 34.5417 38.493C35.0903 36.8833 37.705 35.7211 37.705 35.7211L37.5243 35.1406C37.5243 35.1406 35.4861 35.7833 33.9931 37.294C33.9931 37.294 33.889 34.2867 32.5834 32.9354L32.0903 33.1652C32.0903 33.1652 33.0278 34.1058 33.1771 36.5329C33.1771 36.5329 32.4862 35.4204 31.8022 35.0902L31.3889 35.5128C31.3889 35.5128 34.2814 36.4013 33.3473 45.2298C30.8959 40.2381 29.6389 34.668 29.6112 28.5711H47.941C47.8958 37.6847 45.1181 45.6229 39.6806 52.2065ZM38.125 52.5069C36.875 51.0249 35.7536 49.4774 34.7779 47.8579C34.6598 47.0506 34.3369 44.7163 34.2327 42.4079C34.2154 41.961 34.2118 41.5138 34.2257 41.0871C35.2535 41.5708 37.3438 42.751 37.8855 44.5437C38.4723 46.4878 38.2709 50.5388 38.125 52.5069ZM24.8854 63.377C23.7465 62.918 17.4028 60.1861 11.7049 54.1242C11.8577 53.9524 12.0035 53.7746 12.1528 53.6006C12.3368 53.3881 12.5209 53.1767 12.698 52.9614C12.8959 52.7239 13.0834 52.4822 13.2743 52.2416C13.4445 52.0218 13.6216 51.8034 13.7883 51.5812C13.9688 51.3381 14.1459 51.0913 14.3195 50.8451C14.4827 50.6183 14.6459 50.3933 14.8021 50.1638C14.9723 49.9152 15.132 49.6621 15.2951 49.41C15.4445 49.1774 15.5973 48.9461 15.7431 48.7104C15.8994 48.4558 16.0452 48.1965 16.1945 47.9385C16.3334 47.6996 16.4758 47.4621 16.6112 47.2201C16.7536 46.9597 16.8855 46.6944 17.0243 46.4305C17.1493 46.1854 17.2812 45.9423 17.4028 45.6944C17.5312 45.4263 17.6528 45.1534 17.7778 44.8822C17.8924 44.6329 18.0105 44.3857 18.1181 44.1336C18.2396 43.8565 18.3473 43.5742 18.4584 43.294C18.5591 43.042 18.6667 42.7923 18.7605 42.5374C18.8716 42.2486 18.9653 41.9545 19.0694 41.6624C19.1562 41.4104 19.2465 41.1607 19.3298 40.9062C19.4305 40.5979 19.5173 40.2843 19.6076 39.9725C19.6771 39.7281 19.757 39.4867 19.823 39.2402C19.9237 38.8652 20.0139 38.4843 20.1042 38.1045C20.1667 37.8416 20.2292 37.5794 20.2847 37.3145C20.3923 36.8187 20.4931 36.3204 20.5834 35.8166C20.625 35.584 20.6529 35.3472 20.6911 35.1131C20.7466 34.759 20.8056 34.4065 20.8507 34.0482C20.8854 33.7871 20.9063 33.5211 20.9375 33.2579C20.9722 32.9215 21.014 32.5864 21.0452 32.2465C21.066 31.9711 21.0799 31.6916 21.0973 31.4138C21.1216 31.0805 21.1459 30.7485 21.1598 30.4117C21.1633 30.369 21.1632 30.3256 21.1632 30.2826C21.1702 30.1538 21.1702 30.0222 21.1737 29.893C21.1771 29.777 21.1806 29.6621 21.1841 29.5468C21.1876 29.3194 21.198 28.8944 21.2015 28.5711H28.5695C28.5764 28.8944 28.5834 29.3197 28.5904 29.5468C28.5939 29.6881 28.5972 29.8294 28.6007 29.9715C28.6042 30.0718 28.6043 30.1735 28.6077 30.2735C28.6112 30.3197 28.6111 30.3659 28.6111 30.4117C28.625 30.7485 28.6528 31.0805 28.6737 31.4138C28.6945 31.6916 28.705 31.9711 28.7293 32.2465C28.757 32.5864 28.7986 32.9215 28.8368 33.2579C28.8646 33.5211 28.8889 33.7871 28.9236 34.0482C28.9688 34.4034 29.0279 34.7531 29.0834 35.1045C29.1181 35.3416 29.1493 35.5815 29.191 35.817C29.2778 36.3183 29.3785 36.8138 29.4861 37.3072C29.5417 37.5746 29.6077 37.8392 29.6702 38.1045C29.7604 38.4843 29.8473 38.8652 29.9515 39.2402C30.0174 39.4867 30.0938 39.7281 30.1667 39.9725C30.257 40.2843 30.3438 40.5979 30.4445 40.9062C30.5244 41.1607 30.6181 41.4104 30.7049 41.6624C30.8056 41.9545 30.9029 42.2486 31.0105 42.5374C31.1077 42.7923 31.2119 43.042 31.3125 43.294C31.4271 43.5742 31.5348 43.8565 31.6529 44.1336C31.764 44.3857 31.882 44.6329 31.9965 44.8822C32.1216 45.1534 32.2396 45.4263 32.3716 45.6944C32.4931 45.9423 32.625 46.1854 32.75 46.4305C32.8854 46.6944 33.0209 46.9597 33.1633 47.2201C33.2952 47.4624 33.4375 47.7003 33.5764 47.9399C33.7257 48.1972 33.875 48.4558 34.0278 48.71C34.1736 48.9461 34.3264 49.1777 34.4792 49.4107C34.6424 49.6624 34.8022 49.9152 34.9688 50.1638C35.1251 50.3933 35.2917 50.6183 35.4514 50.8451C35.6285 51.0913 35.8022 51.3381 35.9862 51.5812C36.1529 51.8034 36.3264 52.0218 36.5 52.2416C36.691 52.4822 36.8785 52.7239 37.0729 52.9614C37.2535 53.1767 37.4375 53.3881 37.6216 53.6006C37.7709 53.7746 37.9133 53.9524 38.0696 54.1242C32.3716 60.1861 26.0278 62.918 24.8854 63.377ZM11.8889 44.5437C12.4306 42.751 14.5209 41.5708 15.5486 41.0871C15.5625 41.5138 15.559 41.961 15.5382 42.4079C15.4375 44.7156 15.1146 47.0492 14.9931 47.8572C14.0174 49.4767 12.8993 51.0246 11.6493 52.5065C11.5035 50.5385 11.2986 46.4874 11.8889 44.5437ZM38.2708 23.9631V27.5294H36.5521V22.9708L37.9931 21.5308L32.559 16.0982L32.1875 16.4697L32.1841 16.4662L30.1182 18.5343L30.1215 18.5378L27.1285 21.5308L28.566 22.9711V27.5513H21.2048V22.9708L22.6458 21.5308L17.2118 16.0982L11.7778 21.5308L13.2187 22.9711V27.5294H11.5174V26.2423V23.9631H12.0035V22.227H8.13545C9.93059 17.1506 13.9723 13.1284 19.0556 11.3548C19.2466 11.2899 19.4375 11.2246 19.6285 11.1659C19.6355 11.1635 19.6458 11.161 19.6528 11.1586C21.309 10.6468 23.066 10.368 24.8854 10.368C24.9132 10.368 24.9375 10.3694 24.9653 10.3694C32.6563 10.403 39.2049 15.3503 41.6389 22.227H37.7882V23.9631H38.2708ZM11.2084 42.8781C11.2084 42.8781 11.0903 38.4395 9.18058 36.4298L8.45487 36.7624C8.45487 36.7624 9.82294 38.1617 10.0139 41.7454C10.0139 41.7454 8.50348 39.7593 7.50001 39.2638L6.88545 39.8826C6.88545 39.8826 12.0938 42.7777 10.0938 52.2065C4.65629 45.6232 1.87503 37.685 1.83336 28.5711H20.1632C20.1354 34.668 18.8785 40.2374 16.4236 45.2295C15.4931 36.4013 18.382 35.5128 18.382 35.5128L17.9723 35.0902C17.2883 35.4204 16.5972 36.5329 16.5972 36.5329C16.7465 34.1058 17.6805 33.1652 17.6805 33.1652L17.191 32.9354C15.8855 34.2867 15.7813 37.294 15.7813 37.294C14.2882 35.7833 12.25 35.1406 12.25 35.1406L12.0695 35.7211C12.0695 35.7211 14.6805 36.8833 15.2326 38.493C15.3368 38.7965 15.434 39.3829 15.493 40.1051C14.7326 40.3867 12.9098 41.185 11.2084 42.8781ZM49.5973 10.7291C47.2709 8.00305 43.573 5.32111 39.448 3.37076C34.7848 1.16555 29.7778 -7.62939e-05 24.9653 -7.62939e-05C20.1528 -7.62939e-05 15.1459 1.16555 10.4827 3.37076C6.35766 5.32076 2.65978 8.0034 0.333388 10.7291C0.11811 10.9801 0 11.3006 0 11.6315V28.4329C0 38.8298 3.38195 47.7909 10.0521 55.0673C16.7049 62.3229 24.1701 65.1243 24.4861 65.2395C24.6389 65.2961 24.8021 65.325 24.9653 65.325C25.1285 65.325 25.2917 65.2961 25.4445 65.2399C25.7605 65.1243 33.2257 62.3229 39.8785 55.0673C46.5486 47.7909 49.9306 38.8298 49.9306 28.4329V11.6315C49.9306 11.3006 49.8126 10.9801 49.5973 10.7291Z" fill="#1D4441"/>
<path id="path654" d="M5.9891 33.1198C6.25647 32.4799 6.12106 31.4195 5.41273 30.7101C4.70092 30.0007 3.64189 29.8656 2.99953 30.1334C2.73217 30.7733 2.86757 31.8337 3.57591 32.5431C4.28771 33.2525 5.34674 33.3875 5.9891 33.1198Z" fill="#1D4441"/>
<path id="path656" d="M6.14606 35.4515C5.14259 34.964 3.97594 35.2095 3.39955 35.7251C3.35094 36.4967 3.8822 37.5637 4.88915 38.0508C5.89262 38.5383 7.05927 38.2928 7.63566 37.7772C7.68427 37.0057 7.15301 35.9387 6.14606 35.4515Z" fill="#1D4441"/>
<path id="path658" d="M12.1217 38.2666C11.5071 38.8795 11.389 39.7965 11.6216 40.3496C12.1737 40.5809 13.0903 40.4642 13.7049 39.851C14.316 39.2382 14.4341 38.3215 14.2015 37.768C13.6494 37.5368 12.7328 37.6534 12.1217 38.2666Z" fill="#1D4441"/>
<path id="path660" d="M12.8927 34.8888C13.5663 35.1309 14.2885 34.8972 14.6219 34.5309C14.601 34.0375 14.1913 33.3951 13.5212 33.1527C12.8476 32.9104 12.1253 33.1444 11.792 33.5104C11.8128 34.0038 12.2225 34.6465 12.8927 34.8888Z" fill="#1D4441"/>
<path id="path662" d="M18.8683 31.6233C19.1599 30.9709 18.9758 30.2317 18.6355 29.8747C18.1425 29.8598 17.4724 30.2202 17.1807 30.8723C16.8925 31.5244 17.073 32.2639 17.4133 32.6209C17.9064 32.6358 18.5766 32.2754 18.8683 31.6233Z" fill="#1D4441"/>
<path id="path664" d="M5.15625 42.6874C5.5 43.0409 6.23269 43.2475 6.89589 42.9805C7.55561 42.7131 7.941 42.0558 7.94447 41.5621C7.59725 41.2086 6.86462 41.0017 6.2049 41.269C5.54171 41.5361 5.15625 42.1933 5.15625 42.6874Z" fill="#1D4441"/>
<path id="path666" d="M10.9374 33.7551C10.8124 33.0523 10.2465 32.5419 9.76382 32.4377C9.34716 32.7027 8.99299 33.377 9.12146 34.0798C9.24646 34.7825 9.80894 35.2933 10.2916 35.3975C10.7082 35.1325 11.0624 34.4582 10.9374 33.7551Z" fill="#1D4441"/>
<path id="path668" d="M18.0002 33.4708C17.7016 33.7676 17.646 34.2114 17.7571 34.4791C18.0279 34.5909 18.4688 34.5347 18.7674 34.2378C19.0626 33.9409 19.1217 33.4975 19.0071 33.2294C18.7397 33.1176 18.2953 33.1739 18.0002 33.4708Z" fill="#1D4441"/>
<path id="path670" d="M15.1185 30.9786C15.4136 30.6821 15.4726 30.2383 15.358 29.9706C15.0906 29.8585 14.6462 29.9151 14.351 30.2116C14.0559 30.5085 13.9969 30.9522 14.108 31.2199C14.3788 31.3321 14.8198 31.2755 15.1185 30.9786Z" fill="#1D4441"/>
<path id="path672" d="M14.7433 32.377C14.6947 32.6627 14.8439 33.0836 15.1981 33.3082C15.5523 33.5332 16.0003 33.4919 16.2364 33.3242C16.285 33.0384 16.1356 32.6176 15.7815 32.3926C15.4273 32.1679 14.9794 32.2093 14.7433 32.377Z" fill="#1D4441"/>
<path id="path674" d="M17.6564 36.6131C17.4515 36.8176 17.3335 37.2492 17.4932 37.6367C17.6529 38.0246 18.0418 38.2468 18.3335 38.2461C18.5383 38.0416 18.6564 37.61 18.4966 37.2221C18.3334 36.8343 17.9481 36.6124 17.6564 36.6131Z" fill="#1D4441"/>
<path id="path676" d="M12.2776 36.8045C12.1838 36.5298 11.847 36.235 11.4304 36.21C11.0102 36.185 10.6421 36.4371 10.5137 36.6986C10.6074 36.9732 10.9442 37.2677 11.3644 37.2927C11.7845 37.318 12.1526 37.0656 12.2776 36.8045Z" fill="#1D4441"/>
<path id="path678" d="M13.4309 43.2888C13.3198 43.5566 13.3754 44.0003 13.674 44.2972C13.9691 44.5937 14.4136 44.6503 14.6809 44.5385C14.792 44.2704 14.7365 43.8267 14.4414 43.5302C14.1428 43.2333 13.6983 43.1767 13.4309 43.2888Z" fill="#1D4441"/>
<path id="path680" d="M8.15264 45.6031C7.81583 45.8541 7.69777 46.285 7.77069 46.5663C8.01722 46.7156 8.46511 46.7232 8.80191 46.4725C9.13872 46.2215 9.25683 45.7902 9.18739 45.5093C8.93739 45.36 8.48944 45.352 8.15264 45.6031Z" fill="#1D4441"/>
<path id="path682" d="M12.4371 31.5754C12.6558 31.076 12.5169 30.5115 12.2565 30.2392C11.878 30.2292 11.3676 30.5063 11.1454 31.0059C10.9266 31.5052 11.0655 32.0698 11.3294 32.342C11.7044 32.3521 12.2183 32.075 12.4371 31.5754Z" fill="#1D4441"/>
<path id="path684" d="M6.3088 39.4456C6.1838 39.0883 5.74628 38.7056 5.20115 38.6737C4.65601 38.6418 4.17687 38.9702 4.01367 39.3105C4.1352 39.6674 4.57266 40.0501 5.1178 40.082C5.66294 40.1143 6.14213 39.7859 6.3088 39.4456Z" fill="#1D4441"/>
<path id="path686" d="M7.2016 44.6513C7.52104 44.8524 8.1044 44.8749 8.54885 44.5579C8.99329 44.2409 9.15994 43.6836 9.07314 43.3159C8.75369 43.1149 8.17039 43.0923 7.72941 43.4093C7.28497 43.7263 7.11479 44.2836 7.2016 44.6513Z" fill="#1D4441"/>
<path id="path688" d="M6.90593 34.2559C6.77399 34.6094 6.87121 35.1833 7.27052 35.5542C7.66982 35.925 8.24967 35.976 8.59342 35.817C8.72536 35.4632 8.62814 34.8892 8.22884 34.5188C7.82953 34.1479 7.24968 34.0969 6.90593 34.2559Z" fill="#1D4441"/>
<path id="path690" d="M7.70801 30.803C7.39551 31.0145 7.14205 31.5377 7.25316 32.0721C7.36427 32.6065 7.80523 32.9843 8.17676 33.0537C8.48926 32.8423 8.74624 32.319 8.63513 31.7846C8.52402 31.2502 8.07954 30.8725 7.70801 30.803Z" fill="#1D4441"/>
<path id="path692" d="M46.1945 32.5431C46.9063 31.8337 47.0381 30.7733 46.7708 30.1334C46.1319 29.8656 45.0729 30.0007 44.3611 30.7101C43.6528 31.4195 43.5173 32.4799 43.7847 33.1198C44.427 33.3875 45.4861 33.2525 46.1945 32.5431Z" fill="#1D4441"/>
<path id="path694" d="M44.8853 38.0511C45.8922 37.5639 46.4201 36.4969 46.3749 35.7254C45.7985 35.2097 44.6319 34.9643 43.6249 35.4518C42.6215 35.9389 42.0902 37.0059 42.1388 37.7775C42.7152 38.2931 43.8783 38.5386 44.8853 38.0511Z" fill="#1D4441"/>
<path id="path696" d="M35.5693 37.768C35.3402 38.3215 35.4547 39.2382 36.0693 39.851C36.6804 40.4642 37.5971 40.5809 38.1526 40.3496C38.3818 39.7965 38.2673 38.8795 37.6527 38.2666C37.0416 37.6534 36.1249 37.5368 35.5693 37.768Z" fill="#1D4441"/>
<path id="path698" d="M35.1533 34.5309C35.4867 34.8972 36.2088 35.1309 36.8824 34.8888C37.5525 34.6465 37.9623 34.0038 37.9832 33.5104C37.6498 33.1444 36.9276 32.9104 36.254 33.1527C35.5838 33.3951 35.1742 34.0375 35.1533 34.5309Z" fill="#1D4441"/>
<path id="path700" d="M32.3605 32.6209C32.7008 32.2639 32.8814 31.5244 32.5898 30.8723C32.3016 30.2202 31.6314 29.8598 31.1383 29.8747C30.7946 30.2317 30.6141 30.9709 30.9057 31.6233C31.1974 32.2754 31.8675 32.6358 32.3605 32.6209Z" fill="#1D4441"/>
<path id="path702" d="M43.5697 41.269C42.9065 41.0017 42.1738 41.2086 41.8301 41.5621C41.8336 42.0558 42.2156 42.7131 42.8788 42.9805C43.542 43.2475 44.2746 43.0409 44.6183 42.6874C44.6148 42.1933 44.2329 41.5361 43.5697 41.269Z" fill="#1D4441"/>
<path id="path704" d="M39.4795 35.3975C39.9622 35.2933 40.5282 34.7825 40.6532 34.0798C40.7782 33.377 40.4275 32.7027 40.0108 32.4377C39.5282 32.5419 38.9622 33.0523 38.8372 33.7551C38.7122 34.4582 39.0629 35.1325 39.4795 35.3975Z" fill="#1D4441"/>
<path id="path706" d="M30.7676 33.2294C30.653 33.4975 30.7119 33.9409 31.0071 34.2378C31.3022 34.5347 31.7467 34.5909 32.014 34.4791C32.1286 34.2114 32.0696 33.7676 31.7745 33.4708C31.4759 33.1739 31.0349 33.1176 30.7676 33.2294Z" fill="#1D4441"/>
<path id="path708" d="M35.6634 31.2199C35.7779 30.9522 35.7188 30.5085 35.4237 30.2116C35.1251 29.9151 34.6842 29.8585 34.4134 29.9706C34.3022 30.2383 34.3578 30.6821 34.6564 30.9786C34.9516 31.2755 35.396 31.3321 35.6634 31.2199Z" fill="#1D4441"/>
<path id="path710" d="M34.5764 33.3082C34.9306 33.0836 35.0799 32.6627 35.0313 32.377C34.7917 32.2093 34.3472 32.1679 33.993 32.3926C33.6389 32.6176 33.4862 33.0384 33.5383 33.3242C33.7744 33.4919 34.2188 33.5332 34.5764 33.3082Z" fill="#1D4441"/>
<path id="path712" d="M31.4406 38.2461C31.7322 38.2468 32.1211 38.0246 32.2808 37.6367C32.4405 37.2492 32.3225 36.8176 32.1176 36.6131C31.826 36.6124 31.4371 36.8343 31.2774 37.2221C31.1177 37.61 31.2357 38.0416 31.4406 38.2461Z" fill="#1D4441"/>
<path id="path714" d="M38.3439 36.21C37.9237 36.235 37.5869 36.5298 37.4932 36.8045C37.6216 37.0656 37.9896 37.318 38.4098 37.2927C38.8264 37.2677 39.1633 36.9732 39.2571 36.6986C39.1321 36.4371 38.764 36.185 38.3439 36.21Z" fill="#1D4441"/>
<path id="path716" d="M35.3338 43.5302C35.0386 43.8267 34.983 44.2704 35.0941 44.5385C35.3615 44.6503 35.8059 44.5937 36.1011 44.2972C36.3997 44.0003 36.4552 43.5566 36.3441 43.2888C36.0733 43.1767 35.6324 43.2333 35.3338 43.5302Z" fill="#1D4441"/>
<path id="path718" d="M41.618 45.6031C41.2847 45.352 40.8368 45.36 40.5868 45.5093C40.5139 45.7902 40.6353 46.2215 40.9721 46.4725C41.3055 46.7232 41.7533 46.7156 42.0033 46.5663C42.0763 46.285 41.9548 45.8541 41.618 45.6031Z" fill="#1D4441"/>
<path id="path720" d="M38.4441 32.342C38.708 32.0698 38.8469 31.5052 38.6282 31.0059C38.4059 30.5063 37.8955 30.2292 37.517 30.2392C37.2566 30.5115 37.1143 31.076 37.3365 31.5754C37.5553 32.075 38.0691 32.3521 38.4441 32.342Z" fill="#1D4441"/>
<path id="path722" d="M44.5724 38.6735C44.0273 38.7054 43.5898 39.088 43.4648 39.4453C43.628 39.7856 44.1107 40.1141 44.6558 40.0818C45.201 40.0498 45.6385 39.6672 45.76 39.3103C45.5968 38.97 45.1176 38.6415 44.5724 38.6735Z" fill="#1D4441"/>
<path id="path724" d="M42.0457 43.4093C41.6013 43.0923 41.0213 43.1149 40.7019 43.3159C40.6151 43.6836 40.7818 44.2409 41.2262 44.5579C41.6707 44.8749 42.254 44.8524 42.5735 44.6513C42.6603 44.2836 42.4902 43.7263 42.0457 43.4093Z" fill="#1D4441"/>
<path id="path726" d="M41.5455 34.5188C41.1427 34.8892 41.049 35.4632 41.1809 35.817C41.5212 35.976 42.1011 35.925 42.5039 35.5542C42.9032 35.1833 43.0004 34.6094 42.8685 34.2559C42.5247 34.0969 41.9448 34.1479 41.5455 34.5188Z" fill="#1D4441"/>
<path id="path728" d="M41.597 33.0537C41.9685 32.9843 42.4095 32.6065 42.5206 32.0721C42.6317 31.5377 42.3782 31.0145 42.0657 30.803C41.6942 30.8725 41.2498 31.2502 41.1387 31.7846C41.0275 32.319 41.2845 32.8423 41.597 33.0537Z" fill="#1D4441"/>
<path id="path730" d="M100.483 54.4779H101.267C104.09 54.4779 105.792 52.282 105.792 46.949C105.792 41.7504 104.09 39.5768 101.267 39.5768H100.302C100.01 39.5768 99.9446 39.6442 99.9446 40.0029V53.9852C99.9446 54.4331 100.011 54.4779 100.483 54.4779ZM94.8369 54.8588L96.5592 53.6487C96.7849 53.4921 96.8299 53.4247 96.8299 53.1556V40.8987C96.8299 40.6299 96.7849 40.5629 96.5592 40.406L94.8369 39.1959V39.1511H101.806C106.847 39.1511 109.333 42.0865 109.333 46.7473C109.333 51.7442 106.622 54.9036 101.604 54.9036H94.8369V54.8588Z" fill="#1D4441"/>
<path id="path732" d="M110.361 54.8588L111.684 53.8956C111.91 53.7383 111.91 53.6487 111.91 53.38V45.6046C111.91 45.3133 111.886 45.2459 111.684 45.0893L110.361 43.9688V43.924H114.733V47.0834C115.07 45.515 116.143 43.7449 117.983 43.7449C118.518 43.7449 118.969 43.9015 119.302 44.1702L118.094 47.6213H118.049L116.636 45.3133C116.57 45.2237 116.524 45.2011 116.458 45.2011C116.389 45.2011 116.323 45.2237 116.122 45.3806C115.538 45.8286 115.115 46.5904 114.733 47.3747V53.2234C114.733 53.4695 114.754 53.5817 115.07 53.7383L117.354 54.8588V54.9036H110.361V54.8588Z" fill="#1D4441"/>
<path id="path734" d="M126.628 48.2708C126.607 45.7389 126.205 44.1031 124.68 44.1031C123.337 44.1031 122.663 45.6045 122.573 48.2708H126.628ZM119.639 49.5031C119.639 45.291 122.125 43.7448 124.725 43.7448C127.055 43.7448 129.364 45.0441 129.364 48.1365V48.6743H122.552V49.1222C122.552 51.9684 124.007 53.4469 125.823 53.4469C127.302 53.4469 128.555 52.7528 129.34 50.9823H129.385C128.916 53.716 127.257 55.083 124.701 55.083C122.125 55.083 119.639 53.3799 119.639 49.5031Z" fill="#1D4441"/>
<path id="path736" d="M137.697 48.2708C137.677 45.7389 137.27 44.1031 135.75 44.1031C134.402 44.1031 133.732 45.6045 133.642 48.2708H137.697ZM130.708 49.5031C130.708 45.291 133.194 43.7448 135.795 43.7448C138.125 43.7448 140.43 45.0441 140.43 48.1365V48.6743H133.621V49.1222C133.621 51.9684 135.076 53.4469 136.892 53.4469C138.371 53.4469 139.625 52.7528 140.409 50.9823H140.455C139.982 53.716 138.326 55.083 135.77 55.083C133.194 55.083 130.708 53.3799 130.708 49.5031Z" fill="#1D4441"/>
<path id="path738" d="M141.351 54.8588L142.673 53.8956C142.896 53.7383 142.92 53.6487 142.92 53.38V44.3275H141.507V43.9015H142.92V43.3188C142.92 40.2043 144.309 38.9272 146.84 38.9272C147.962 38.9272 148.989 39.1289 150 39.4647L148.722 42.49H148.677L147.378 39.5768C147.264 39.3081 147.243 39.2855 146.906 39.2855C146.101 39.2855 145.743 39.9803 145.743 41.6609V43.9015H148.767V44.3275H145.743V53.2904C145.743 53.5817 145.764 53.6265 146.055 53.7834L147.916 54.8588V54.9036H141.351V54.8588Z" fill="#1D4441"/>
<path id="path740" d="M58.7361 18.5135H59.1597C60.684 18.5135 61.6007 17.3288 61.6007 14.4503C61.6007 11.6448 60.684 10.4719 59.1597 10.4719H58.6389C58.4826 10.4719 58.4444 10.5083 58.4444 10.7017V18.2476C58.4444 18.4892 58.4827 18.5135 58.7361 18.5135ZM55.6875 18.7191L56.6181 18.066C56.7396 17.9816 56.7639 17.9451 56.7639 17.8V11.1854C56.7639 11.0403 56.7396 11.0042 56.6181 10.9194L55.6875 10.2663V10.2424H59.4479C62.1702 10.2424 63.5104 11.8264 63.5104 14.3417C63.5104 17.0382 62.0486 18.7434 59.3403 18.7434H55.6875V18.7191Z" fill="#1D4441"/>
<path id="path742" d="M68.0594 15.1638C68.049 13.7975 67.8302 12.9145 67.0073 12.9145C66.2816 12.9145 65.9205 13.7249 65.8719 15.1638H68.0594ZM64.2852 15.8291C64.2852 13.5555 65.6288 12.7211 67.0316 12.7211C68.2885 12.7211 69.5351 13.4225 69.5351 15.0912V15.3815H65.858V15.6235C65.858 17.1593 66.6462 17.9572 67.6254 17.9572C68.424 17.9572 69.101 17.5826 69.5212 16.627H69.5456C69.2921 18.1023 68.3996 18.8398 67.0212 18.8398C65.6288 18.8398 64.2852 17.9211 64.2852 15.8291Z" fill="#1D4441"/>
<path id="path744" d="M66.9132 26.7405L63.7326 36.8242H61.5591L57.1216 23.2006C56.9861 22.8193 56.8542 22.5732 56.6285 22.3041L55.6875 21.1166V21.0718H61.7396V21.1166L60.3715 22.461C60.2361 22.618 60.191 22.7298 60.3056 23.0211L64.0244 34.4041L66.6909 26.0239L65.816 23.2006C65.7048 22.8193 65.5938 22.5954 65.3681 22.3489L64.5174 21.1166V21.0718H70.4549V21.1166L69.0868 22.461C68.9548 22.618 68.9305 22.7298 69 22.9989L72.5173 34.3593L75.7882 24.0968C75.9236 23.7159 75.8541 23.5815 75.5625 23.2902L73.5695 21.1166V21.0718H78.7466V21.1166L76.8403 23.2006C76.4826 23.5815 76.3923 23.6711 76.2569 24.119L72.2257 36.8242H70.0521L66.9132 26.7405Z" fill="#1D4441"/>
<path id="path746" d="M80.8296 21.2957C81.7012 21.2957 82.3955 21.9457 82.3955 22.8645C82.3955 23.7381 81.7012 24.4103 80.8296 24.4103C79.9755 24.4103 79.281 23.7381 79.281 22.8645C79.281 21.9457 79.9755 21.2957 80.8296 21.2957ZM77.9824 36.7794L79.3053 35.8159C79.5275 35.6589 79.5276 35.5694 79.5276 35.3006V27.5475C79.5276 27.2562 79.5066 27.1891 79.3053 27.0319L77.9824 25.8891V25.8447H82.3504V35.3006C82.3504 35.5694 82.3747 35.6364 82.597 35.8159L83.9199 36.7794V36.8242H77.9824V36.7794Z" fill="#1D4441"/>
<path id="path748" d="M91.6283 30.1916C91.6075 27.6597 91.2011 26.0239 89.6803 26.0239C88.3331 26.0239 87.663 27.5249 87.5727 30.1916H91.6283ZM84.6387 31.4239C84.6387 27.2114 87.1247 25.6652 89.722 25.6652C92.0553 25.6652 94.3609 26.9649 94.3609 30.0572V30.5951H87.5484V31.043C87.5484 33.8888 89.0066 35.3676 90.8226 35.3676C92.3018 35.3676 93.5553 34.6732 94.34 32.9031H94.3852C93.913 35.6364 92.2568 37.0034 89.7012 37.0034C87.1248 37.0034 84.6387 35.3006 84.6387 31.4239Z" fill="#1D4441"/>
<path id="path750" d="M95.1211 36.7794L96.4683 35.8159C96.6697 35.6589 96.6905 35.5694 96.6905 35.3006V22.5954C96.6905 22.3041 96.6697 22.2371 96.4683 22.0801L95.1211 21.1166V21.0718L99.5135 20.5562V35.3006C99.5135 35.5694 99.5135 35.6364 99.76 35.8159L101.083 36.7794V36.8242H95.1211V36.7794Z" fill="#1D4441"/>
<path id="path752" d="M101.913 36.3086L102.989 33.0374H103.031L104.535 36.3086C104.625 36.4881 104.691 36.5329 104.958 36.5777C105.205 36.6225 105.406 36.6451 105.698 36.6451C107.132 36.6451 107.917 35.7711 107.917 34.7628C107.917 33.6649 107.066 33.2614 105.788 32.6788L104.354 32.0291C103.146 31.4687 102.205 30.5052 102.205 28.959C102.205 26.9201 104.017 25.6652 106.326 25.6652C107.469 25.6652 108.701 25.7996 109.979 26.2256L108.927 29.2729H108.882L107.312 26.3597C107.177 26.1135 107.111 26.0687 106.864 26.0465C106.684 26.0239 106.507 26.0239 106.351 26.0239C105.319 26.0239 104.444 26.6288 104.444 27.794C104.444 28.8472 105.205 29.3402 106.305 29.8107L107.781 30.4381C109.128 31.0208 110.316 31.76 110.316 33.4631C110.316 35.7937 108.253 37.0034 105.722 37.0034C104.555 37.0034 103.101 36.7572 101.913 36.3086Z" fill="#1D4441"/>
<path id="path754" d="M111.545 31.4465C111.545 27.1892 114.392 25.6652 117.125 25.6652C118.111 25.6652 119.278 25.8222 120.601 26.2926L119.389 29.8329H119.344L117.844 26.3152C117.753 26.1135 117.708 26.0687 117.552 26.0465C117.371 26.0239 117.285 26.0239 117.149 26.0239C115.469 26.0239 114.528 27.6371 114.528 30.5725C114.528 34.0683 116.007 35.3451 117.663 35.3451C118.92 35.3451 119.948 34.6506 120.646 33.127H120.687C120.285 35.435 118.896 37.0034 116.41 37.0034C113.944 37.0034 111.545 35.3006 111.545 31.4465Z" fill="#1D4441"/>
<path id="path756" d="M121.205 36.7794L122.549 35.8159C122.75 35.6589 122.771 35.5694 122.771 35.3006V22.5954C122.771 22.3041 122.75 22.2371 122.549 22.0801L121.205 21.1166V21.0718L125.594 20.5562V28.3544C126.157 26.5839 127.299 25.6652 129.025 25.6652C131.132 25.6652 132.295 27.144 132.295 30.2364C132.295 31.4687 132.25 33.5301 132.25 35.3006C132.25 35.5919 132.275 35.6589 132.497 35.8159L133.82 36.7794V36.8242H127.882V36.7794L129.136 35.8159C129.361 35.6589 129.407 35.5468 129.407 35.345C129.407 35.0763 129.472 31.4687 129.472 30.3933C129.472 28.3093 128.979 27.2114 127.636 27.2114C126.74 27.2114 126.066 27.7492 125.594 28.5558V35.3006C125.594 35.5694 125.594 35.6364 125.84 35.8159L127.163 36.7794V36.8242H121.205V36.7794Z" fill="#1D4441"/>
<path id="path758" d="M141.413 30.1916C141.392 27.6597 140.99 26.0239 139.465 26.0239C138.122 26.0239 137.448 27.5249 137.358 30.1916H141.413ZM134.424 31.4239C134.424 27.2114 136.91 25.6652 139.511 25.6652C141.84 25.6652 144.149 26.9649 144.149 30.0572V30.5951H137.337V31.043C137.337 33.8888 138.792 35.3676 140.608 35.3676C142.087 35.3676 143.34 34.6732 144.125 32.9031H144.17C143.702 35.6364 142.042 37.0034 139.486 37.0034C136.91 37.0034 134.424 35.3006 134.424 31.4239Z" fill="#1D4441"/>
</g>
</g>
</svg>
